<svg id="Layer_1" data-name="Layer 1" xmlns="http://www.w3.org/2000/svg" viewBox="0 0 379.4 239.71"><defs><style>.cls-1{fill:#fff;}.cls-2{fill:#29467f;}</style></defs><path class="cls-1" d="M295.11,306.69c6.95,3.54,12.64,8.88,18.86,13.43,10.89,8,21.23,16.71,32.16,24.63,3.53,2.55,2.45,4,.69,6.6q-23.52,34.84-46.92,69.78c-1.3,1.92-1.84,4.68-4.79,5.1a24.24,24.24,0,0,1-1.61-9.74q0-50.57,0-101.13C293.52,312.37,293.37,309.36,295.11,306.69Z" transform="translate(-107.47 -277.74)"/><path class="cls-2" d="M295.11,306.69V426.23Q281.79,406.64,268.48,387c-8.05-11.93-16-23.94-24.05-35.86-1.68-2.47-2.76-3.68.74-6.34,15.26-11.58,30.36-23.38,45.88-34.64C292.49,309.14,293.76,307.86,295.11,306.69Z" transform="translate(-107.47 -277.74)"/><path class="cls-2" d="M128.63,517.18c-4.81,0-9.64-.15-14.45.05-2.73.12-3.66-.62-3.67-3.52-.05-8.51-.19-8.51,8.11-8.51,7.3,0,14.62.11,21.92,0,6.38-.12,9.47-3.5,8-8.32-1.11-3.61-3.87-4.44-7.19-4.65-6.72-.42-13.42,0-20.2-.71-11-1.19-15.12-13-13.23-20.79,2.84-11.77,8.93-13.63,20.1-14.29,9.43-.56,18.93,0,28.4-.19,3.18-.07,4.22.72,4.16,4.06-.16,8,0,8-8.14,8-7.47,0-15,0-22.42,0-4.64,0-7.43,2.34-7.44,6s2.79,5.82,7.41,6c6.89.31,13.75-.13,20.7.79,11.57,1.54,14.89,12.55,13.22,21-2.24,11.37-7.73,14.83-20.81,15.1C138.27,517.26,133.45,517.18,128.63,517.18Z" transform="translate(-107.47 -277.74)"/><path class="cls-2" d="M221.35,486.72c0,9-.11,18,.06,26.94.06,2.86-.84,3.56-3.62,3.59-10.41.12-10.41.23-10.41-10.2,0-4-.16-8,.05-12,.15-2.67-1.14-2.92-3.28-2.88-5.15.11-10.31.18-15.46,0-2.66-.11-3.39.79-3.32,3.37.17,6-.06,12,.11,18,.07,2.63-.42,3.74-3.45,3.77-9.58.09-9.58.24-9.57-9.56,0-15.8.09-31.6-.08-47.4,0-3.3.9-4.14,4.13-4.1,8.91.12,8.91,0,8.92,8.72,0,4.32.13,8.65-.06,13-.11,2.54.56,3.52,3.28,3.41,5.15-.22,10.32-.21,15.46,0,2.68.1,3.4-.78,3.33-3.37-.18-6.15,0-12.31-.1-18.47,0-2.2.37-3.13,2.93-3.25,11.08-.53,11.08-.64,11.08,10.54Z" transform="translate(-107.47 -277.74)"/><path class="cls-1" d="M338.2,456.3c7.15,0,14.31.17,21.45-.08,3.56-.13,4.88,1.1,4.41,4.54a11.51,11.51,0,0,0,0,3c.44,3.38-.74,4.86-4.37,4.58-3.8-.28-7.65.13-11.46-.12-3.34-.22-4.25,1.06-4.21,4.28.15,13-.11,25.95.16,38.92.09,4.43-.91,6.16-5.69,5.87-8.51-.49-7.31.91-7.36-7.56-.07-12.31-.12-24.63.05-36.93.05-3.38-.79-5-4.41-4.57a65,65,0,0,1-7,0c-7.85,0-9.09-1.7-7.66-9.72.44-2.5,2-2.24,3.62-2.24C323.23,456.28,330.72,456.3,338.2,456.3Z" transform="translate(-107.47 -277.74)"/><path class="cls-1" d="M295.11,277.74c7.45,2.1,13,7.62,19.7,11,1.17.59,2.1,1.79,3.3,2.16,9.43,2.86,11.05,9.7,10.12,18.41-.58,5.38-.11,10.88-.11,17.25l-32.77-23c-.35-.34-.88-.59-.94-1.1C293.33,294.22,292.33,285.92,295.11,277.74Z" transform="translate(-107.47 -277.74)"/><path class="cls-2" d="M295.11,277.74l.24,25.88L262.5,327.29c1.37-9.5.61-18.11.69-26.7,0-2.75.69-4.35,3.28-5.81C276.13,289.3,285.58,283.45,295.11,277.74Z" transform="translate(-107.47 -277.74)"/><path class="cls-2" d="M246.29,487c0,9-.08,17.93.06,26.89,0,2.55-.66,3.32-3.3,3.38-10.73.25-10.72.35-10.72-10.34,0-15.61.08-31.21-.07-46.81,0-3,.68-3.9,3.81-3.9,10.22,0,10.22-.12,10.22,9.87Z" transform="translate(-107.47 -277.74)"/><path class="cls-1" d="M424.77,482.17c-1.9-14.93-5.62-20.6-18.3-24.59a39,39,0,0,0-16.71-1.1c-5.63.72-11.27,1.89-15.78,6.23-7,6.72-8.18,15.11-7.94,24.09a54,54,0,0,0,0,6c1.34,11.56,5.31,18.65,16.89,22.47,7,2.3,14.09,2.38,21.44,1.13,10-1.69,15.72-7.2,18.82-16.57A39.81,39.81,0,0,0,424.77,482.17Zm-18.43,19c-3.91,4.89-9.3,6-15.24,4.52-6.31-1.59-9.12-6.46-9.92-12.24a61.53,61.53,0,0,1,0-14.67c.77-7.33,7-11.78,15.27-11.55,7.31.21,12.82,6.07,13.48,14.43.13,1.65,0,3.32,0,5.33C410.29,491.91,409.69,497,406.34,501.21Z" transform="translate(-107.47 -277.74)"/><path class="cls-1" d="M471,457c-11.62-.94-23.18-.13-34.75-.75-3.18-.17-3.42,1.55-3.4,4,.07,8.81,0,17.61,0,26.42v20.93c0,10,0,9.93,10.25,9.62,2.75-.08,3.87-.83,3.76-3.7-.18-4.48.12-9-.1-13.45-.16-3.14,1.07-4,4-3.92,5.14.18,10.3.05,15.44.05,11.51,0,17.11-4.17,20-15.14C488.86,471.63,482.14,457.91,471,457Zm-6.79,27.22c-2.16,0-4.31,0-6.46,0-11,0-10.78,0-11-10.84-.09-4.19,1.18-5.55,5.3-5.2,3.94.34,7.94,0,11.92.08a7.62,7.62,0,0,1,7.82,8.18C471.69,481.42,469.08,484.12,464.23,484.23Z" transform="translate(-107.47 -277.74)"/><path class="cls-2" d="M309.59,470.31c-2.52-10.08-8.64-13.85-21-14-9.13-.11-18.28.16-27.4-.12-3.58-.11-4,1.32-3.92,4.29.16,8.64,0,17.28,0,25.92v21.44c0,10,0,10,10.2,9.39,2.15-.12,2.88-.67,2.82-2.85-.14-5,.11-10-.11-14.95-.12-2.73.87-3.35,3.41-3.28,5.64.17,11.31-.21,16.94.11C305.88,497.13,313,484.12,309.59,470.31Zm-13.84,5.81c-.32,5.69-2.5,8.07-7.43,8.12-2.48,0-5,0-7.45,0-10.64,0-10.46,0-10.72-10.84-.1-4,.64-5.65,5-5.23s8.94,0,13.41.13C293.24,468.45,296,471.59,295.75,476.12Z" transform="translate(-107.47 -277.74)"/></svg>