<svg width="32" height="30" viewBox="0 0 32 30" fill="none" xmlns="http://www.w3.org/2000/svg">
<path d="M23.1111 22.5V18H10.6667V12H23.1111V7.5L32 15L23.1111 22.5ZM19.5556 0C20.4985 0 21.4029 0.31607 22.0697 0.878679C22.7365 1.44129 23.1111 2.20435 23.1111 3V6H19.5556V3H3.55556V27H19.5556V24H23.1111V27C23.1111 27.7956 22.7365 28.5587 22.0697 29.1213C21.4029 29.6839 20.4985 30 19.5556 30H3.55556C2.61256 30 1.70819 29.6839 1.0414 29.1213C0.374602 28.5587 0 27.7956 0 27V3C0 2.20435 0.374602 1.44129 1.0414 0.878679C1.70819 0.31607 2.61256 0 3.55556 0H19.5556Z" fill="white"/>
</svg>
